<svg width="64" height="62" viewBox="0 0 64 62" fill="none" xmlns="http://www.w3.org/2000/svg">
<path d="M32.0833 7.56351C27.2547 7.56351 22.5345 8.96045 18.5196 11.5777C14.5047 14.1949 11.3755 17.9148 9.52769 22.2671C7.67984 26.6194 7.19636 31.4085 8.13839 36.0289C9.08041 40.6492 11.4056 44.8933 14.82 48.2244C18.2344 51.5555 22.5845 53.824 27.3204 54.743C32.0563 55.6621 36.9651 55.1904 41.4262 53.3876C45.8873 51.5849 49.7002 48.532 52.3829 44.615C55.0655 40.6981 56.4974 36.093 56.4974 31.3821C56.4845 25.0689 53.9082 19.0179 49.3324 14.5537C44.7567 10.0896 38.5544 7.5761 32.0833 7.56351ZM32.0833 53.2952C27.641 53.2952 23.2984 52.01 19.6047 49.6022C15.911 47.1944 13.0322 43.772 11.3321 39.7679C9.63212 35.7638 9.18732 31.3578 10.054 27.1071C10.9206 22.8563 13.0598 18.9518 16.2011 15.8872C19.3423 12.8226 23.3444 10.7356 27.7014 9.89006C32.0584 9.04453 36.5746 9.47849 40.6788 11.137C44.783 12.7956 48.2909 15.6042 50.7589 19.2078C53.227 22.8114 54.5443 27.0481 54.5443 31.3821C54.5378 37.1919 52.1693 42.7619 47.9585 46.8701C43.7476 50.9782 38.0384 53.2889 32.0833 53.2952ZM39.8958 23.7602V39.0041C39.8958 39.2567 39.7929 39.4991 39.6098 39.6778C39.4267 39.8564 39.1783 39.9568 38.9193 39.9568C38.6603 39.9568 38.4119 39.8564 38.2287 39.6778C38.0456 39.4991 37.9427 39.2567 37.9427 39.0041V23.7602C37.9427 23.5075 38.0456 23.2651 38.2287 23.0865C38.4119 22.9078 38.6603 22.8074 38.9193 22.8074C39.1783 22.8074 39.4267 22.9078 39.6098 23.0865C39.7929 23.2651 39.8958 23.5075 39.8958 23.7602ZM37.5033 30.5961L25.7845 22.9741C25.6376 22.8787 25.467 22.8239 25.2908 22.8155C25.1145 22.8071 24.9392 22.8455 24.7835 22.9265C24.6275 23.0057 24.497 23.1255 24.4065 23.2727C24.316 23.4198 24.269 23.5886 24.2708 23.7602V39.0041C24.269 39.1757 24.316 39.3444 24.4065 39.4915C24.497 39.6387 24.6275 39.7585 24.7835 39.8377C24.9273 39.9103 25.0857 39.9509 25.2474 39.9568C25.4403 39.9603 25.6291 39.9017 25.7845 39.7901L37.5033 32.1681C37.6394 32.0845 37.7516 31.9685 37.8294 31.831C37.9072 31.6936 37.948 31.5391 37.948 31.3821C37.948 31.2251 37.9072 31.0707 37.8294 30.9332C37.7516 30.7958 37.6394 30.6798 37.5033 30.5961ZM26.224 37.2177V25.5466L35.2083 31.3821L26.224 37.2177Z" fill="black"/>
</svg>
