<svg width="60" height="60" viewBox="0 0 60 60" fill="none" xmlns="http://www.w3.org/2000/svg">
<g clip-path="url(#clip0_1_173)">
<path d="M30 0C24.0666 0 18.2664 1.75947 13.3329 5.05591C8.39943 8.35235 4.55425 13.0377 2.28363 18.5195C0.0129981 24.0013 -0.581101 30.0333 0.576455 35.8527C1.73401 41.6721 4.59123 47.0176 8.78681 51.2132C12.9824 55.4088 18.3279 58.266 24.1473 59.4235C29.9667 60.5811 35.9987 59.987 41.4805 57.7164C46.9623 55.4457 51.6476 51.6006 54.9441 46.6671C58.2405 41.7336 60 35.9334 60 30C59.9841 22.0484 56.8183 14.427 51.1957 8.80431C45.573 3.18165 37.9516 0.0158557 30 0V0ZM30 57.6C24.5412 57.6 19.2051 55.9813 14.6663 52.9485C10.1275 49.9158 6.58992 45.6053 4.50094 40.5621C2.41196 35.5188 1.86539 29.9694 2.93034 24.6155C3.99529 19.2616 6.62394 14.3438 10.4839 10.4838C14.3438 6.62392 19.2616 3.99528 24.6155 2.93033C29.9694 1.86537 35.5188 2.41195 40.5621 4.50092C45.6053 6.5899 49.9158 10.1275 52.9486 14.6663C55.9813 19.2051 57.6 24.5412 57.6 30C57.5921 37.3175 54.6817 44.3331 49.5074 49.5074C44.3331 54.6816 37.3175 57.592 30 57.6V57.6ZM24 20.4V39.6C24 39.9182 23.8736 40.2235 23.6485 40.4485C23.4235 40.6736 23.1183 40.8 22.8 40.8C22.4817 40.8 22.1765 40.6736 21.9515 40.4485C21.7264 40.2235 21.6 39.9182 21.6 39.6V20.4C21.6 20.0817 21.7264 19.7765 21.9515 19.5515C22.1765 19.3264 22.4817 19.2 22.8 19.2C23.1183 19.2 23.4235 19.3264 23.6485 19.5515C23.8736 19.7765 24 20.0817 24 20.4ZM38.4 20.4V39.6C38.4 39.9182 38.2736 40.2235 38.0485 40.4485C37.8235 40.6736 37.5183 40.8 37.2 40.8C36.8817 40.8 36.5765 40.6736 36.3515 40.4485C36.1264 40.2235 36 39.9182 36 39.6V20.4C36 20.0817 36.1264 19.7765 36.3515 19.5515C36.5765 19.3264 36.8817 19.2 37.2 19.2C37.5183 19.2 37.8235 19.3264 38.0485 19.5515C38.2736 19.7765 38.4 20.0817 38.4 20.4Z" fill="black"/>
</g>
<defs>
<clipPath id="clip0_1_173">
<rect width="60" height="60" fill="white"/>
</clipPath>
</defs>
</svg>
