<svg width="60" height="60" viewBox="0 0 60 60" fill="none" xmlns="http://www.w3.org/2000/svg">
<g clip-path="url(#clip0_1_160)">
<path d="M60 30C59.9954 22.0449 56.8371 14.417 51.2191 8.79192C45.601 3.16684 37.9826 0.0046422 30.0375 0C22.0848 0.00261815 14.4576 3.16178 8.82716 8.78515C3.19676 14.4085 0.0224965 22.0374 0 30C0.0224965 37.9626 3.19676 45.5915 8.82716 51.2149C14.4576 56.8382 22.0848 59.9974 30.0375 60C37.9809 59.9954 45.5978 56.8345 51.2155 51.2116C56.8333 45.5887 59.9927 37.9633 60 30.01V30ZM57.7425 30C57.7448 33.643 57.0301 37.2507 55.6394 40.6171C54.2486 43.9834 52.209 47.0424 49.637 49.6192C47.0651 52.196 44.0112 54.2401 40.65 55.6347C37.2887 57.0294 33.6859 57.7472 30.0475 57.7472C14.74 57.7472 2.2675 45.3367 2.2675 30C2.28472 22.6379 5.21839 15.5834 10.4247 10.3847C15.631 5.18593 22.6846 2.26767 30.0375 2.27034C37.3809 2.27034 44.4238 5.19047 49.6173 10.3886C54.8108 15.5868 57.7298 22.6374 57.7325 29.99L57.7425 30ZM54.8425 30.2178L51.7125 29.1414L11.555 14.9387L10.045 14.428L10.045 46.1026L11.555 45.5269L51.725 31.3116L54.8425 30.2178ZM47.85 30.2178L33.7425 35.2415L12.36 27.6721V17.6245L47.85 30.2178ZM30.255 36.4806L12.3675 42.8185V30.0776L30.255 36.4806Z" fill="black"/>
</g>
<defs>
<clipPath id="clip0_1_160">
<rect width="60" height="60" fill="white" transform="translate(60) rotate(90)"/>
</clipPath>
</defs>
</svg>
