<svg width="63" height="62" viewBox="0 0 63 62" fill="none" xmlns="http://www.w3.org/2000/svg">
<g clip-path="url(#clip0_1_160)">
<path d="M62.5 31.2332C62.4952 23.1488 59.2053 15.3969 53.3532 9.6803C47.5011 3.96375 39.5652 0.75014 31.2891 0.745422C23.0051 0.748083 15.06 3.95861 9.19496 9.67342C3.32996 15.3882 0.0234375 23.1412 3.8147e-06 31.2332C0.0234375 39.3253 3.32996 47.0782 9.19496 52.793C15.06 58.5078 23.0051 61.7184 31.2891 61.721C39.5634 61.7163 47.4977 58.5041 53.3495 52.7897C59.2014 47.0754 62.4924 39.3261 62.5 31.2434V31.2332ZM60.1484 31.2332C60.1508 34.9354 59.4064 38.6018 57.9577 42.0229C56.509 45.444 54.3843 48.5527 51.7052 51.1714C49.0261 53.7901 45.845 55.8674 42.3437 57.2848C38.8424 58.7021 35.0895 59.4316 31.2995 59.4316C15.3542 59.4316 2.36198 46.8193 2.36198 31.2332C2.37992 23.7514 5.43583 16.5822 10.8591 11.2989C16.2823 6.01567 23.6298 3.04996 31.2891 3.05268C38.9385 3.05268 46.2747 6.02029 51.6847 11.303C57.0946 16.5856 60.1353 23.7509 60.138 31.223L60.1484 31.2332ZM57.1276 31.4545L53.8672 30.3607L12.0365 15.927L10.4635 15.4081L10.4635 47.5977L12.0365 47.0126L53.8802 32.5662L57.1276 31.4545ZM49.8438 31.4545L35.1484 36.56L12.875 28.8675V18.6565L49.8438 31.4545ZM31.5156 37.8192L12.8828 44.2602V31.3121L31.5156 37.8192Z" fill="black"/>
</g>
<defs>
<clipPath id="clip0_1_160">
<rect width="60.9756" height="62.5" fill="white" transform="translate(62.5 0.707336) rotate(90)"/>
</clipPath>
</defs>
</svg>
