<svg width="64" height="62" viewBox="0 0 64 62" fill="none" xmlns="http://www.w3.org/2000/svg">
<path d="M32.0833 55.2007C36.9119 55.2007 41.6322 53.8038 45.647 51.1866C49.6619 48.5693 52.7911 44.8494 54.639 40.4971C56.4868 36.1448 56.9703 31.3557 56.0283 26.7353C55.0862 22.115 52.761 17.8709 49.3467 14.5398C45.9323 11.2087 41.5821 8.94024 36.8463 8.02119C32.1104 7.10214 27.2015 7.57383 22.7404 9.3766C18.2794 11.1794 14.4664 14.2323 11.7838 18.1492C9.1011 22.0662 7.66925 26.6712 7.66925 31.3821C7.68215 37.6953 10.2585 43.7464 14.8342 48.2105C19.4099 52.6746 25.6123 55.1881 32.0833 55.2007ZM32.0833 9.46901C36.5257 9.46901 40.8683 10.7542 44.5619 13.162C48.2556 15.5699 51.1345 18.9922 52.8345 22.9963C54.5345 27.0004 54.9793 31.4064 54.1127 35.6572C53.246 39.9079 51.1068 43.8124 47.9656 46.877C44.8244 49.9416 40.8222 52.0286 36.4652 52.8742C32.1082 53.7197 27.5921 53.2857 23.4879 51.6272C19.3837 49.9686 15.8758 47.16 13.4077 43.5564C10.9397 39.9528 9.62237 35.7161 9.62237 31.3821C9.62883 25.5723 11.9973 20.0023 16.2082 15.8942C20.419 11.786 26.1283 9.47531 32.0833 9.46901ZM24.2708 39.0041L24.2708 23.7602C24.2708 23.5075 24.3737 23.2651 24.5568 23.0865C24.74 22.9078 24.9884 22.8074 25.2474 22.8074C25.5064 22.8074 25.7548 22.9078 25.9379 23.0865C26.121 23.2651 26.2239 23.5075 26.2239 23.7602V39.0041C26.2239 39.2568 26.121 39.4991 25.9379 39.6778C25.7548 39.8564 25.5064 39.9568 25.2474 39.9568C24.9884 39.9568 24.74 39.8564 24.5568 39.6778C24.3737 39.4991 24.2708 39.2568 24.2708 39.0041ZM26.6634 32.1681L38.3821 39.7901C38.529 39.8855 38.6996 39.9403 38.8759 39.9487C39.0521 39.9571 39.2274 39.9187 39.3831 39.8377C39.5392 39.7585 39.6697 39.6387 39.7602 39.4916C39.8507 39.3444 39.8976 39.1757 39.8958 39.0041V23.7602C39.8976 23.5886 39.8507 23.4198 39.7602 23.2727C39.6697 23.1255 39.5392 23.0057 39.3831 22.9265C39.2394 22.854 39.081 22.8133 38.9192 22.8074C38.7263 22.804 38.5376 22.8626 38.3821 22.9741L26.6634 30.5961C26.5272 30.6798 26.415 30.7958 26.3372 30.9332C26.2595 31.0707 26.2187 31.2251 26.2187 31.3821C26.2187 31.5391 26.2595 31.6936 26.3372 31.831C26.415 31.9685 26.5272 32.0845 26.6634 32.1681ZM37.9427 25.5466V37.2177L28.9583 31.3821L37.9427 25.5466Z" fill="black"/>
</svg>
