<svg width="63" height="62" viewBox="0 0 63 62" fill="none" xmlns="http://www.w3.org/2000/svg">
<path d="M31.75 7.37646C26.9214 7.37646 22.2012 8.7734 18.1863 11.3906C14.1714 14.0078 11.0422 17.7278 9.19436 22.0801C7.34652 26.4324 6.86304 31.2215 7.80506 35.8418C8.74708 40.4622 11.0723 44.7063 14.4867 48.0374C17.901 51.3684 22.2512 53.6369 26.9871 54.556C31.7229 55.475 36.6318 55.0034 41.0929 53.2006C45.554 51.3978 49.3669 48.3449 52.0496 44.428C54.7322 40.511 56.1641 35.9059 56.1641 31.1951C56.1512 24.8818 53.5748 18.8308 48.9991 14.3667C44.4234 9.90255 38.2211 7.38905 31.75 7.37646ZM31.75 53.1082C27.3077 53.1082 22.9651 51.823 19.2714 49.4151C15.5777 47.0073 12.6988 43.5849 10.9988 39.5808C9.2988 35.5768 8.85399 31.1708 9.72065 26.92C10.5873 22.6693 12.7265 18.7648 15.8677 15.7002C19.0089 12.6356 23.0111 10.5485 27.3681 9.70301C31.7251 8.85748 36.2412 9.29144 40.3454 10.95C44.4496 12.6085 47.9576 15.4172 50.4256 19.0208C52.8936 22.6244 54.2109 26.8611 54.2109 31.1951C54.2045 37.0048 51.836 42.5749 47.6252 46.683C43.4143 50.7911 37.705 53.1019 31.75 53.1082ZM37.6094 24.5259H25.8906C25.6316 24.5259 25.3832 24.6262 25.2001 24.8049C25.017 24.9836 24.9141 25.2259 24.9141 25.4786V36.9115C24.9141 37.1642 25.017 37.4065 25.2001 37.5852C25.3832 37.7639 25.6316 37.8643 25.8906 37.8643H37.6094C37.8684 37.8643 38.1168 37.7639 38.2999 37.5852C38.4831 37.4065 38.5859 37.1642 38.5859 36.9115V25.4786C38.5859 25.2259 38.4831 24.9836 38.2999 24.8049C38.1168 24.6262 37.8684 24.5259 37.6094 24.5259ZM36.6328 35.9588H26.8672V26.4313H36.6328V35.9588Z" fill="black"/>
</svg>
